<svg width="118" height="20" viewBox="0 0 118 20" fill="none" xmlns="http://www.w3.org/2000/svg">
<path d="M114.027 16.0026H115.351C116.814 16.0026 118 17.1957 118 18.6675V20H114.027V16.0026Z" fill="#376FFF"/>
<path d="M2.64863 19.7919C1.18583 19.7919 0 18.5987 0 17.1269V2.84442C0 1.37262 1.18583 0.179489 2.64863 0.179489H11.9151V4.12958H3.98085V7.99681H10.2678V11.864H3.98085V15.8418H9.26645C10.7293 15.8418 11.9151 17.0349 11.9151 18.5067V19.7919H2.64863Z" fill="black"/>
<path d="M19.9169 19.8333C17.9402 19.8333 16.2563 19.1336 14.8653 17.734C13.4926 16.3344 12.8062 14.6586 12.8062 12.7066C12.8062 10.7546 13.4926 9.07877 14.8653 7.67921C16.2563 6.27964 17.9402 5.57986 19.9169 5.57986C21.1431 5.57986 22.2688 5.85609 23.2937 6.40855C24.3187 6.94259 25.1423 7.67921 25.7646 8.61839L22.8544 10.8006C22.1406 9.67727 21.1614 9.11561 19.9169 9.11561C18.9651 9.11561 18.1689 9.45629 17.5283 10.1377C16.906 10.819 16.5949 11.6753 16.5949 12.7066C16.5949 13.7379 16.906 14.5942 17.5283 15.2755C18.1689 15.9569 18.9651 16.2976 19.9169 16.2976C21.1614 16.2976 22.1406 15.7359 22.8544 14.6126L25.7646 16.7948C25.1423 17.734 24.3187 18.4798 23.2937 19.0323C22.2688 19.5663 21.1431 19.8333 19.9169 19.8333Z" fill="black"/>
<path d="M33.4108 19.8333C31.4158 19.8333 29.7228 19.1428 28.3318 17.7616C26.959 16.362 26.2727 14.677 26.2727 12.7066C26.2727 10.7362 26.959 9.06036 28.3318 7.67921C29.7228 6.27964 31.4158 5.57986 33.4108 5.57986C35.3875 5.57986 37.0713 6.27964 38.4623 7.67921C39.8533 9.07877 40.5488 10.7546 40.5488 12.7066C40.5488 14.6586 39.8533 16.3344 38.4623 17.734C37.0713 19.1336 35.3875 19.8333 33.4108 19.8333ZM33.4108 16.2976C34.3625 16.2976 35.1495 15.9569 35.7718 15.2755C36.4124 14.5942 36.7327 13.7379 36.7327 12.7066C36.7327 11.6753 36.4124 10.819 35.7718 10.1377C35.1495 9.45629 34.3625 9.11561 33.4108 9.11561C32.4224 9.11561 31.6171 9.45629 30.9948 10.1377C30.3725 10.8006 30.0614 11.6569 30.0614 12.7066C30.0614 13.7563 30.3725 14.6218 30.9948 15.3032C31.6171 15.9661 32.4224 16.2976 33.4108 16.2976Z" fill="black"/>
<path d="M47.1391 19.8333L37.9969 0H42.417L47.1391 10.7177L51.8612 0H56.2813L47.1391 19.8333Z" fill="black"/>
<path d="M63.8711 19.6124V18.6732C62.9743 19.4466 61.867 19.8333 60.5492 19.8333C58.5725 19.8333 56.9527 19.1428 55.6898 17.7616C54.4452 16.362 53.8229 14.677 53.8229 12.7066C53.8229 10.7362 54.4452 9.06036 55.6898 7.67921C56.9527 6.27964 58.5725 5.57986 60.5492 5.57986C61.867 5.57986 62.9743 5.96658 63.8711 6.74002V5.80084H67.6323V19.6124H63.8711ZM61.0982 16.3528C62.2879 16.3528 63.2122 15.9017 63.8711 14.9993V10.4415C63.1939 9.52074 62.2696 9.06036 61.0982 9.06036C60.0733 9.06036 59.2405 9.41946 58.5999 10.1377C57.9593 10.8374 57.639 11.6938 57.639 12.7066C57.639 13.7194 57.9593 14.585 58.5999 15.3032C59.2405 16.003 60.0733 16.3528 61.0982 16.3528Z" fill="black"/>
<path d="M79.3164 19.6124V18.4798C78.4196 19.3822 77.2574 19.8333 75.8297 19.8333C74.0544 19.8333 72.6542 19.2717 71.6293 18.1483C70.6043 17.025 70.0918 15.5334 70.0918 13.6734V5.80084H73.853V13.0381C73.853 14.0325 74.0818 14.8336 74.5394 15.4413C74.997 16.049 75.6467 16.3528 76.4886 16.3528C77.8064 16.3528 78.749 15.8004 79.3164 14.6955V5.80084H83.0776V19.6124H79.3164Z" fill="black"/>
<path d="M85.707 19.6124V0H89.4682V19.6124H85.707Z" fill="black"/>
<path d="M100.881 19.6124H97.449C96.1495 19.6124 95.1246 19.2441 94.3741 18.5074C93.642 17.7708 93.276 16.7396 93.276 15.4137V9.11561H91.4091L90.5855 5.80084H93.276V3.53575L97.0372 1.65738V5.80084H101.32L100.496 9.11561H97.0372V14.3916C97.0372 14.9993 97.1653 15.4505 97.4216 15.7451C97.6778 16.0214 98.1079 16.1595 98.7119 16.1595H100.881V19.6124Z" fill="black"/>
<path d="M106.869 19.8333C104.399 19.8333 102.614 18.8665 101.516 16.9329L104.371 14.9717C105.048 16.1319 105.927 16.7119 107.007 16.7119C107.922 16.7119 108.379 16.4173 108.379 15.828C108.379 15.5149 108.251 15.2755 107.995 15.1098C107.757 14.9257 107.272 14.6955 106.54 14.4192L105.744 14.0878C103.383 13.2038 102.202 11.749 102.202 9.72331C102.202 8.52631 102.641 7.54109 103.52 6.76765C104.399 5.97579 105.497 5.57986 106.815 5.57986C108.718 5.57986 110.146 6.32568 111.097 7.81732L108.846 9.88905C108.279 9.04194 107.602 8.61839 106.815 8.61839C106.027 8.61839 105.634 8.89462 105.634 9.44708C105.634 9.76014 105.753 10.0087 105.991 10.1929C106.229 10.3586 106.723 10.5888 107.473 10.8835L108.16 11.1321C109.423 11.6109 110.347 12.2094 110.933 12.9276C111.518 13.6274 111.811 14.4929 111.811 15.5242C111.811 16.8685 111.354 17.9274 110.438 18.7008C109.523 19.4558 108.334 19.8333 106.869 19.8333Z" fill="black"/>
</svg>
