<svg width="766" height="352" viewBox="0 0 766 352" fill="none" xmlns="http://www.w3.org/2000/svg">
<g clip-path="url(#clip0_104_15738)">
<mask id="mask0_104_15738" style="mask-type:alpha" maskUnits="userSpaceOnUse" x="-123" y="-31" width="1687" height="414">
<path d="M-16 61L-16 54.333C-15.9998 7.75725 21.7573 -29.9998 68.333 -30L75 -30C76.6569 -30 78 -28.6568 78 -27L78 61C78 62.6569 76.6568 64 75 64L-13 64C-14.6569 64 -16 62.6569 -16 61Z" stroke="#376FFF" stroke-width="2"/>
<path d="M90 61L90 54.333C90.0002 7.75725 127.757 -29.9998 174.333 -30L181 -30C182.657 -30 184 -28.6568 184 -27L184 61C184 62.6569 182.657 64 181 64L93 64C91.3431 64 90 62.6569 90 61Z" stroke="#376FFF" stroke-width="2"/>
<path d="M196 61L196 54.333C196 7.75725 233.757 -29.9998 280.333 -30L287 -30C288.657 -30 290 -28.6568 290 -27L290 61C290 62.6569 288.657 64 287 64L199 64C197.343 64 196 62.6569 196 61Z" stroke="#376FFF" stroke-width="2"/>
<path d="M302 61L302 54.333C302 7.75725 339.757 -29.9998 386.333 -30L393 -30C394.657 -30 396 -28.6568 396 -27L396 61C396 62.6569 394.657 64 393 64L305 64C303.343 64 302 62.6569 302 61Z" stroke="#376FFF" stroke-width="2"/>
<path d="M408 61L408 54.333C408 7.75725 445.757 -29.9998 492.333 -30L499 -30C500.657 -30 502 -28.6568 502 -27L502 61C502 62.6569 500.657 64 499 64L411 64C409.343 64 408 62.6569 408 61Z" stroke="#376FFF" stroke-width="2"/>
<path d="M514 61L514 54.333C514 7.75725 551.757 -29.9998 598.333 -30L605 -30C606.657 -30 608 -28.6568 608 -27L608 61C608 62.6569 606.657 64 605 64L517 64C515.343 64 514 62.6569 514 61Z" stroke="#376FFF" stroke-width="2"/>
<path d="M620 61L620 54.333C620 7.75725 657.757 -29.9998 704.333 -30L711 -30C712.657 -30 714 -28.6568 714 -27L714 61C714 62.6569 712.657 64 711 64L623 64C621.343 64 620 62.6569 620 61Z" stroke="#376FFF" stroke-width="2"/>
<path d="M729 -30H735.667C782.243 -29.9998 820 7.75725 820 54.333V61C820 62.6568 818.657 64 817 64H729C727.343 64 726 62.6568 726 61V-27C726 -28.6569 727.343 -30 729 -30Z" stroke="#376FFF" stroke-width="2"/>
<path d="M-16 167L-16 160.333C-15.9998 113.757 21.7573 76.0002 68.333 76L75 76C76.6569 76 78 77.3432 78 79L78 167C78 168.657 76.6568 170 75 170L-13 170C-14.6569 170 -16 168.657 -16 167Z" stroke="#376FFF" stroke-width="2"/>
<path d="M90 167L90 160.333C90.0002 113.757 127.757 76.0002 174.333 76L181 76C182.657 76 184 77.3432 184 79L184 167C184 168.657 182.657 170 181 170L93 170C91.3431 170 90 168.657 90 167Z" stroke="#376FFF" stroke-width="2"/>
<path d="M196 167L196 160.333C196 113.757 233.757 76.0002 280.333 76L287 76C288.657 76 290 77.3432 290 79L290 167C290 168.657 288.657 170 287 170L199 170C197.343 170 196 168.657 196 167Z" stroke="#376FFF" stroke-width="2"/>
<path d="M302 167L302 160.333C302 113.757 339.757 76.0002 386.333 76L393 76C394.657 76 396 77.3432 396 79L396 167C396 168.657 394.657 170 393 170L305 170C303.343 170 302 168.657 302 167Z" stroke="#376FFF" stroke-width="2"/>
<path d="M408 167L408 160.333C408 113.757 445.757 76.0002 492.333 76L499 76C500.657 76 502 77.3432 502 79L502 167C502 168.657 500.657 170 499 170L411 170C409.343 170 408 168.657 408 167Z" stroke="#376FFF" stroke-width="2"/>
<path d="M517 76L523.667 76C570.243 76.0002 608 113.757 608 160.333L608 167C608 168.657 606.657 170 605 170L517 170C515.343 170 514 168.657 514 167L514 79C514 77.3431 515.343 76 517 76Z" stroke="#376FFF" stroke-width="2"/>
<path d="M623 76L629.667 76C676.243 76.0002 714 113.757 714 160.333L714 167C714 168.657 712.657 170 711 170L623 170C621.343 170 620 168.657 620 167L620 79C620 77.3431 621.343 76 623 76Z" stroke="#376FFF" stroke-width="2"/>
<path d="M820 79L820 85.667C820 132.243 782.243 170 735.667 170L729 170C727.343 170 726 168.657 726 167L726 79C726 77.3431 727.343 76 729 76L817 76C818.657 76 820 77.3431 820 79Z" stroke="#376FFF" stroke-width="2"/>
<path d="M75 276L68.333 276C21.7572 276 -15.9998 238.243 -16 191.667L-16 185C-16 183.343 -14.6568 182 -13 182L75 182C76.6569 182 78 183.343 78 185L78 273C78 274.657 76.6569 276 75 276Z" stroke="#376FFF" stroke-width="2"/>
<path d="M181 276L174.333 276C127.757 276 90.0002 238.243 90 191.667L90 185C90 183.343 91.3432 182 93 182L181 182C182.657 182 184 183.343 184 185L184 273C184 274.657 182.657 276 181 276Z" stroke="#376FFF" stroke-width="2"/>
<path d="M287 276L280.333 276C233.757 276 196 238.243 196 191.667L196 185C196 183.343 197.343 182 199 182L287 182C288.657 182 290 183.343 290 185L290 273C290 274.657 288.657 276 287 276Z" stroke="#376FFF" stroke-width="2"/>
<path d="M393 276L386.333 276C339.757 276 302 238.243 302 191.667L302 185C302 183.343 303.343 182 305 182L393 182C394.657 182 396 183.343 396 185L396 273C396 274.657 394.657 276 393 276Z" stroke="#376FFF" stroke-width="2"/>
<path d="M499 276L492.333 276C445.757 276 408 238.243 408 191.667L408 185C408 183.343 409.343 182 411 182L499 182C500.657 182 502 183.343 502 185L502 273C502 274.657 500.657 276 499 276Z" stroke="#376FFF" stroke-width="2"/>
<path d="M608 185L608 191.667C608 238.243 570.243 276 523.667 276L517 276C515.343 276 514 274.657 514 273L514 185C514 183.343 515.343 182 517 182L605 182C606.657 182 608 183.343 608 185Z" stroke="#376FFF" stroke-width="2"/>
<path d="M620 273L620 266.333C620 219.757 657.757 182 704.333 182L711 182C712.657 182 714 183.343 714 185L714 273C714 274.657 712.657 276 711 276L623 276C621.343 276 620 274.657 620 273Z" stroke="#376FFF" stroke-width="2"/>
<path d="M817 276L810.333 276C763.757 276 726 238.243 726 191.667L726 185C726 183.343 727.343 182 729 182L817 182C818.657 182 820 183.343 820 185L820 273C820 274.657 818.657 276 817 276Z" stroke="#376FFF" stroke-width="2"/>
<path d="M75 382L68.333 382C21.7572 382 -15.9998 344.243 -16 297.667L-16 291C-16 289.343 -14.6568 288 -13 288L75 288C76.6569 288 78 289.343 78 291L78 379C78 380.657 76.6569 382 75 382Z" stroke="#376FFF" stroke-width="2"/>
<path d="M181 382L174.333 382C127.757 382 90.0002 344.243 90 297.667L90 291C90 289.343 91.3432 288 93 288L181 288C182.657 288 184 289.343 184 291L184 379C184 380.657 182.657 382 181 382Z" stroke="#376FFF" stroke-width="2"/>
<path d="M287 382L280.333 382C233.757 382 196 344.243 196 297.667L196 291C196 289.343 197.343 288 199 288L287 288C288.657 288 290 289.343 290 291L290 379C290 380.657 288.657 382 287 382Z" stroke="#376FFF" stroke-width="2"/>
<path d="M393 382L386.333 382C339.757 382 302 344.243 302 297.667L302 291C302 289.343 303.343 288 305 288L393 288C394.657 288 396 289.343 396 291L396 379C396 380.657 394.657 382 393 382Z" stroke="#376FFF" stroke-width="2"/>
<path d="M499 382L492.333 382C445.757 382 408 344.243 408 297.667L408 291C408 289.343 409.343 288 411 288L499 288C500.657 288 502 289.343 502 291L502 379C502 380.657 500.657 382 499 382Z" stroke="#376FFF" stroke-width="2"/>
<path d="M605 382L598.333 382C551.757 382 514 344.243 514 297.667L514 291C514 289.343 515.343 288 517 288L605 288C606.657 288 608 289.343 608 291L608 379C608 380.657 606.657 382 605 382Z" stroke="#376FFF" stroke-width="2"/>
<path d="M711 382L704.333 382C657.757 382 620 344.243 620 297.667L620 291C620 289.343 621.343 288 623 288L711 288C712.657 288 714 289.343 714 291L714 379C714 380.657 712.657 382 711 382Z" stroke="#376FFF" stroke-width="2"/>
<path d="M820 291L820 297.667C820 344.243 782.243 382 735.667 382L729 382C727.343 382 726 380.657 726 379L726 291C726 289.343 727.343 288 729 288L817 288C818.657 288 820 289.343 820 291Z" stroke="#376FFF" stroke-width="2"/>
</mask>
<g mask="url(#mask0_104_15738)">
<rect x="-123" y="-31" width="1686" height="414" fill="url(#paint0_radial_104_15738)"/>
</g>
</g>
<defs>
<radialGradient id="paint0_radial_104_15738" cx="0" cy="0" r="1" gradientUnits="userSpaceOnUse" gradientTransform="translate(848.5 176.996) rotate(90) scale(181.004 702.042)">
<stop offset="0.35" stop-color="#7FA6FF"/>
<stop offset="0.950725" stop-color="#F9FAFB"/>
</radialGradient>
<clipPath id="clip0_104_15738">
<rect width="1440" height="352" fill="white"/>
</clipPath>
</defs>
</svg>
